<?xml version="1.0" encoding="UTF-8" standalone="no"?>
<svg
   xmlns:osb="http://www.openswatchbook.org/uri/2009/osb"
   xmlns:dc="http://purl.org/dc/elements/1.1/"
   xmlns:cc="http://creativecommons.org/ns#"
   xmlns:rdf="http://www.w3.org/1999/02/22-rdf-syntax-ns#"
   xmlns:svg="http://www.w3.org/2000/svg"
   xmlns="http://www.w3.org/2000/svg"
   xmlns:sodipodi="http://sodipodi.sourceforge.net/DTD/sodipodi-0.dtd"
   xmlns:inkscape="http://www.inkscape.org/namespaces/inkscape"
   height="112"
   width="305"
   version="1.1"
   x="0px"
   y="0px"
   viewBox="0 0 101.66667 37.333329"
   enable-background="new 0 0 100 100"
   xml:space="preserve"
   id="svg4"
   sodipodi:docname="logo.svg"
   inkscape:version="0.92.3 (2405546, 2018-03-11)"
   style="fill:#000000"><metadata
     id="metadata10"><rdf:RDF><cc:Work
         rdf:about=""><dc:format>image/svg+xml</dc:format><dc:type
           rdf:resource="http://purl.org/dc/dcmitype/StillImage" /><dc:title></dc:title></cc:Work></rdf:RDF></metadata><defs
     id="defs8"><linearGradient
       id="linearGradient5994"
       osb:paint="solid"><stop
         style="stop-color:#4fafa0;stop-opacity:1;"
         offset="0"
         id="stop5992" /></linearGradient></defs><sodipodi:namedview
     pagecolor="#ffffff"
     bordercolor="#666666"
     borderopacity="1"
     objecttolerance="10"
     gridtolerance="10"
     guidetolerance="10"
     inkscape:pageopacity="0"
     inkscape:pageshadow="2"
     inkscape:window-width="1916"
     inkscape:window-height="1054"
     id="namedview6"
     showgrid="false"
     inkscape:zoom="17.800235"
     inkscape:cx="36.770038"
     inkscape:cy="45.31587"
     inkscape:window-x="1920"
     inkscape:window-y="0"
     inkscape:window-maximized="0"
     inkscape:current-layer="svg4" /><path
     d="m 88.932265,8.6323964 c -19.359664,-0.07313 -38.607009,-0.03622 -57.853557,0.0014 0,0 -10.903774,-0.07561 -10.09124,10.7052406 0,0 -0.311458,9.906334 10.698268,9.535404 13.685365,0.03756 27.257808,-0.03419 40.944483,0.115979 0,0 2.785732,0.296165 2.753732,-2.039395 0,0 0.419887,-1.896987 -3.144698,-2.183153 -13.573557,-0.03947 -27.148515,-0.07874 -40.720959,-0.007 -6.674855,0.09005 -6.414034,-5.364858 -6.414034,-5.364858 -0.09007,-6.674856 6.369556,-6.205446 6.369556,-6.205446 L 87.88056,13.097458 C 97.659267,14.147566 96.547191,23.69 96.547191,23.69 c -0.145122,9.875459 -8.958353,8.992969 -8.958353,8.992969 -23.25433,-0.02093 -46.394745,0.06943 -69.648277,0.04909 C 4.3467176,31.246276 4.9515097,18.332593 4.9515097,18.332593 4.6651305,5.3188184 18.792899,5.1281054 18.792899,5.1281054 l 54.626824,-0.06948 C 74.864307,4.9279325 75.967697,4.2455446 75.948209,2.7998446 75.818629,1.4664656 74.69747,0.81356358 73.472272,0.71901258 l -55.184378,-0.03399 C -0.17474186,1.1566136 0.5032072,18.392138 0.5032072,18.392138 c 0,0 0.029188,18.690905 18.7170678,18.438701 20.91606,-0.05947 46.223677,-0.191373 67.14085,-0.139601 0,0 13.302718,1.558899 14.637465,-12.85281 C 100.79366,8.6125904 88.932265,8.6324004 88.932265,8.6324004 Z"
     id="path2"
     inkscape:connector-curvature="0"
     style="opacity:1;fill:rgb(244, 36, 36);fill-opacity:1;stroke:#2b5f5f;stroke-opacity:0.6197183" /></svg>
