<?xml version="1.0" standalone="no"?>
<!DOCTYPE svg PUBLIC "-//W3C//DTD SVG 20010904//EN"
 "http://www.w3.org/TR/2001/REC-SVG-20010904/DTD/svg10.dtd">
<svg version="1.0" xmlns="http://www.w3.org/2000/svg"
 width="531.000000pt" height="531.000000pt" viewBox="0 0 531.000000 531.000000"
 preserveAspectRatio="xMidYMid meet">
<metadata>
Created by potrace 1.11, written by Peter Selinger 2001-2013
</metadata>
<g transform="translate(0.000000,531.000000) scale(0.100000,-0.100000)"
fill="#000000" stroke="none">
<path d="M2505 5293 c-16 -3 -35 -12 -43 -21 -7 -10 -11 -11 -7 -4 9 18 -25
15 -48 -5 -11 -10 -18 -13 -14 -7 3 6 -1 11 -9 11 -8 0 -13 -6 -10 -13 3 -8 0
-11 -10 -7 -8 3 -22 -1 -31 -8 -14 -12 -16 -12 -9 1 4 8 0 6 -8 -4 -9 -11 -16
-14 -16 -7 0 7 -5 9 -10 6 -6 -4 -8 -10 -5 -15 3 -4 -2 -11 -11 -14 -8 -3 -12
-2 -9 4 3 6 -1 7 -10 4 -8 -4 -23 -18 -31 -33 -8 -14 -13 -18 -10 -8 3 9 1 17
-4 17 -6 0 -11 -10 -11 -22 -1 -17 -3 -18 -6 -6 -3 14 -7 15 -18 5 -7 -6 -11
-15 -8 -19 2 -4 -4 -5 -13 -1 -12 4 -15 3 -10 -5 4 -7 2 -12 -4 -12 -6 0 -9
-4 -5 -9 3 -5 0 -13 -6 -17 -8 -5 -9 -3 -4 6 6 10 4 12 -9 7 -10 -4 -20 -7
-22 -7 -2 0 -4 -5 -4 -11 0 -5 5 -7 12 -3 7 5 8 3 4 -5 -5 -7 -10 -10 -13 -7
-11 11 -44 -16 -39 -31 6 -14 4 -14 -11 -2 -10 7 -15 10 -11 5 4 -5 -3 -17
-15 -27 -20 -18 -21 -19 -2 -13 18 5 18 4 2 -6 -9 -6 -21 -9 -26 -5 -12 7 -25
-31 -16 -45 4 -6 -1 -7 -11 -3 -13 5 -16 3 -11 -10 4 -12 2 -14 -11 -10 -9 3
-14 3 -10 -2 4 -4 0 -14 -10 -22 -11 -9 -11 -12 -2 -7 8 4 5 -3 -7 -15 -14
-13 -20 -27 -16 -38 4 -10 2 -14 -4 -10 -6 4 -14 0 -17 -9 -3 -8 -2 -13 3 -9
8 4 8 -16 1 -35 -1 -3 -2 -8 -1 -12 0 -4 -5 -5 -12 -2 -8 3 -14 -1 -14 -8 0
-7 -3 -24 -7 -37 -6 -18 -5 -22 5 -17 8 4 6 1 -4 -7 -18 -15 -18 -16 0 -27 16
-10 16 -11 1 -6 -21 6 -23 -4 -5 -23 10 -11 10 -13 0 -7 -7 4 -13 3 -13 -3 0
-5 6 -12 13 -14 8 -4 7 -6 -3 -6 -12 -1 -14 -12 -12 -51 3 -32 8 -48 15 -43 6
4 7 1 2 -8 -11 -17 -14 -50 -4 -44 4 3 10 -2 13 -11 3 -8 2 -12 -4 -9 -6 3
-10 1 -10 -4 0 -6 4 -11 10 -11 5 0 7 -7 4 -15 -5 -13 -118 -15 -930 -15
l-924 0 0 -2205 0 -2205 2090 0 2090 0 0 300 c0 282 1 300 19 309 10 6 22 7
26 3 5 -4 6 0 3 9 -4 9 -1 16 8 16 7 0 11 -4 7 -9 -3 -5 24 5 61 24 36 18 66
37 66 41 0 5 -6 5 -12 1 -8 -4 -10 -3 -5 2 5 5 14 9 20 9 7 1 11 7 9 15 -3 11
0 11 14 -1 16 -12 17 -12 12 2 -5 11 -1 16 10 15 11 -1 16 6 16 17 -2 13 1 15
11 7 8 -7 15 -7 19 -1 3 5 0 12 -6 15 -7 3 -2 3 11 0 20 -5 23 -3 17 11 -5 13
-2 16 10 11 12 -5 14 -1 9 17 -5 17 -4 19 4 7 10 -13 12 -13 20 0 5 8 7 18 5
22 -3 4 3 5 12 1 11 -4 15 -2 11 4 -4 6 3 13 14 16 12 3 18 10 14 16 -3 6 -2
11 4 11 6 0 8 8 5 18 -5 14 -4 15 5 2 8 -12 13 -12 23 -2 9 9 9 12 0 12 -7 0
-12 4 -12 9 0 5 7 8 16 7 9 0 21 8 28 19 6 11 15 23 20 26 5 4 6 11 2 17 -3 5
2 16 12 23 16 13 16 13 2 -6 -14 -19 -14 -19 2 -6 19 14 26 47 8 36 -6 -3 -7
1 -3 10 4 12 8 13 13 5 5 -9 9 -9 14 -1 4 6 4 11 -1 11 -4 0 0 5 10 11 15 9
16 13 5 27 -7 9 -8 13 -2 9 10 -5 16 4 43 58 3 6 -4 3 -15 -5 -17 -14 -18 -13
-7 1 7 9 10 19 6 23 -4 4 0 4 10 0 9 -3 17 -2 17 4 0 6 -6 13 -12 15 -8 3 -6
6 5 6 15 1 16 4 6 22 -6 12 -7 19 -1 15 15 -9 24 25 11 40 -9 11 -9 13 2 9 10
-4 15 2 16 15 1 13 -2 18 -10 13 -7 -4 -5 1 3 11 17 22 24 56 10 56 -6 0 -10
5 -10 11 0 5 5 7 10 4 6 -3 10 -2 10 4 0 5 -6 12 -12 14 -10 4 -10 6 0 6 6 1
12 6 12 12 0 5 -6 7 -12 3 -10 -6 -10 -4 -2 7 15 20 10 109 -6 119 -8 5 -15
16 -16 24 -1 9 2 14 7 10 5 -3 9 4 9 14 0 11 -8 23 -17 26 -13 5 -14 9 -4 19
9 9 6 16 -11 29 -20 16 -21 17 -3 11 l20 -6 -20 23 c-13 15 -15 21 -5 16 8 -4
6 0 -4 8 -13 11 -15 16 -6 16 7 0 10 3 6 7 -4 5 -13 8 -19 8 -5 0 -11 10 -12
22 -1 12 2 20 7 16 5 -3 4 4 -3 15 -7 12 -16 19 -20 17 -3 -3 -6 5 -5 18 0 12
-4 21 -10 20 -7 -1 -10 6 -7 16 3 10 -1 22 -8 26 -8 6 -10 4 -4 -5 5 -8 4 -11
-3 -7 -5 4 -8 17 -4 29 3 13 1 19 -5 15 -6 -4 -19 5 -28 19 -9 15 -12 23 -6
20 6 -4 11 -3 11 3 0 18 -33 81 -42 81 -5 0 -6 -6 -2 -12 4 -7 3 -9 -1 -5 -12
10 -15 38 -4 32 5 -4 6 1 3 9 -3 9 -10 13 -16 10 -5 -3 -8 2 -6 11 2 10 -3 20
-11 23 -9 3 -11 0 -6 -8 5 -9 4 -11 -4 -6 -9 6 -9 11 0 22 10 12 9 17 -1 27
-10 9 -11 9 -6 0 10 -19 1 -16 -15 4 -10 11 -10 14 -1 9 7 -4 12 -1 12 9 0 8
-10 20 -22 25 -13 5 -17 9 -10 9 20 1 14 21 -10 31 -13 5 -17 9 -10 9 6 1 12
6 12 12 0 5 -3 8 -7 6 -5 -3 -15 2 -23 11 -13 14 -12 15 3 9 17 -6 17 -5 0 23
-9 17 -21 30 -25 30 -4 0 -5 7 -2 15 5 12 2 14 -12 8 -17 -6 -17 -5 -6 10 12
13 10 18 -7 29 -12 7 -21 16 -21 21 0 4 4 5 10 2 5 -3 7 0 4 9 -3 9 -12 12
-22 8 -14 -5 -15 -3 -5 9 9 11 8 18 -1 31 -7 10 -15 15 -18 12 -3 -2 -8 2 -12
11 -3 9 -2 13 4 10 6 -3 10 -4 10 0 0 3 -10 10 -22 15 -17 6 -19 9 -6 9 16 1
15 5 -4 37 -12 20 -32 47 -45 60 -13 13 -23 29 -23 36 1 7 8 1 16 -14 8 -16
17 -28 20 -28 8 0 -29 65 -45 78 -12 10 -12 12 -1 6 12 -7 13 -5 3 8 -7 8 -9
19 -5 24 4 4 0 3 -9 -4 -14 -11 -16 -9 -12 12 3 13 -1 27 -8 31 -7 5 -10 4 -5
-3 3 -6 2 -13 -3 -17 -6 -3 -8 5 -5 20 3 16 -5 40 -22 66 -14 23 -20 38 -12
34 10 -6 11 -5 1 6 -10 10 -13 173 -13 746 l0 733 -379 0 c-240 0 -382 4 -386
10 -3 6 1 7 9 4 9 -3 16 -3 16 0 0 4 -12 11 -26 16 -22 9 -24 13 -14 25 9 10
9 15 1 15 -6 0 -11 7 -11 16 0 9 -8 23 -18 32 -10 10 -11 13 -3 7 23 -16 2 16
-26 38 -13 10 -23 23 -23 29 0 6 9 0 20 -13 15 -19 14 -13 -7 33 -14 31 -35
61 -47 67 -12 7 -13 9 -4 7 12 -4 15 -1 11 10 -3 7 -11 14 -18 14 -7 0 -16 7
-19 16 -5 14 -4 15 9 4 13 -11 14 -10 9 4 -3 9 -10 16 -15 16 -5 0 -9 8 -9 18
-1 9 -8 28 -16 42 -8 14 -13 17 -10 7 4 -11 2 -16 -5 -11 -6 3 -8 15 -6 26 4
15 2 18 -11 13 -9 -3 -13 -3 -9 1 4 4 1 14 -6 23 -11 14 -10 14 6 2 16 -13 16
-9 -4 32 -13 26 -28 47 -35 47 -6 0 -15 7 -18 16 -6 15 -4 15 11 3 15 -12 15
-11 -1 8 -10 13 -24 20 -30 16 -6 -4 -5 1 3 10 12 15 12 17 -2 12 -8 -4 -18
-1 -23 6 -4 8 -3 10 4 5 20 -12 13 4 -20 45 -17 21 -38 39 -46 39 -9 0 -12 3
-9 7 10 10 -31 35 -45 27 -6 -4 -8 -3 -5 2 3 6 3 14 -1 20 -14 19 -64 45 -77
40 -10 -3 -12 0 -8 12 6 14 4 15 -9 4 -13 -10 -18 -10 -24 -1 -5 8 -3 9 6 4 9
-6 11 -4 5 4 -4 7 -16 11 -26 8 -11 -3 -17 -2 -14 3 3 4 -2 11 -11 14 -8 3
-13 2 -10 -2 3 -5 -1 -9 -8 -9 -8 0 -12 6 -10 12 3 6 -2 12 -10 12 -8 0 -13
-4 -11 -8 7 -10 -22 -5 -32 6 -4 4 -2 5 5 1 6 -4 12 -2 12 3 0 15 -13 14 -29
-1 -11 -11 -12 -10 -6 1 6 11 4 13 -8 8 -10 -3 -17 -2 -17 3 0 6 -5 10 -11 10
-5 0 -7 -6 -3 -12 6 -10 4 -10 -7 0 -7 6 -18 12 -23 12 -6 0 -4 -5 4 -10 13
-8 12 -10 -2 -10 -10 0 -18 4 -18 8 0 4 -11 9 -26 10 -14 1 -23 -2 -19 -8 3
-6 1 -10 -4 -10 -6 0 -11 6 -11 13 0 8 -4 7 -10 -3 -6 -10 -10 -11 -10 -2 0 6
-3 11 -7 11 -5 -1 -21 -4 -38 -6z m423 -108 c-3 -3 -9 2 -12 12 -6 14 -5 15 5
6 7 -7 10 -15 7 -18z m140 -105 c13 -16 21 -30 19 -30 -2 0 -16 14 -30 30 -15
17 -23 30 -19 30 5 0 18 -13 30 -30z m-447 -30 c6 0 8 4 5 8 -2 4 4 8 14 8 10
0 16 -4 13 -9 -3 -5 4 -6 16 -2 13 4 21 2 21 -5 0 -6 5 -8 10 -5 6 4 8 11 5
16 -3 5 1 6 10 2 12 -4 13 -8 5 -13 -8 -5 -4 -9 9 -13 12 -3 19 -2 16 2 -2 4
2 8 9 8 9 0 12 -7 8 -16 -5 -14 -4 -14 13 -1 17 14 18 13 12 -4 -6 -15 -4 -17
14 -13 11 3 18 3 15 0 -9 -9 24 -35 38 -30 8 3 13 -1 12 -11 0 -9 4 -16 10
-15 7 1 17 -11 24 -27 7 -17 17 -30 22 -30 5 0 6 -4 3 -10 -4 -6 1 -7 11 -3
11 4 15 3 10 -5 -3 -6 2 -16 11 -22 16 -10 16 -11 1 -6 -12 3 -15 1 -11 -9 3
-8 8 -13 12 -11 3 2 14 -7 25 -21 l18 -25 -23 12 c-20 9 -19 6 6 -14 16 -14
30 -35 30 -48 0 -13 5 -22 11 -21 7 1 10 -6 7 -17 -4 -15 0 -20 13 -20 16 0
17 -2 4 -10 -13 -8 -12 -10 3 -10 9 0 17 -5 17 -11 0 -5 -4 -7 -10 -4 -15 9
-12 -1 8 -35 10 -16 22 -27 26 -23 4 4 4 0 0 -10 -4 -12 -1 -17 12 -17 16 0
17 -2 4 -10 -14 -9 -7 -15 14 -11 5 1 4 -4 -1 -11 -13 -15 -1 -37 32 -57 16
-10 16 -11 2 -7 -15 5 -16 3 -6 -17 16 -30 24 -36 15 -12 -5 15 -4 17 5 8 6
-6 8 -16 5 -22 -9 -14 -1024 -15 -1046 -1 -8 5 -11 10 -6 10 6 0 1 7 -10 15
-19 15 -19 15 1 8 18 -6 18 -5 6 10 -7 9 -11 23 -8 31 7 17 -16 39 -28 28 -5
-4 -5 -1 -1 6 4 7 11 10 15 8 4 -3 8 13 7 34 -1 30 -4 39 -15 35 -11 -4 -11
-2 -3 8 9 10 8 17 -1 26 -9 10 -8 11 6 5 19 -7 21 15 2 28 -6 4 -2 8 8 8 14 0
16 4 7 19 -13 24 -13 41 0 21 7 -12 12 -7 25 22 8 21 15 42 15 48 0 5 4 10 10
10 5 0 12 11 16 25 3 13 10 23 16 22 5 -1 16 9 25 23 12 20 12 21 0 8 -8 -10
-18 -18 -22 -18 -5 0 0 9 10 20 10 11 21 17 26 15 4 -3 20 7 36 21 15 15 19
20 8 13 -18 -13 -19 -13 -6 3 7 10 17 15 22 13 11 -7 71 30 62 39 -4 4 1 4 12
0 15 -6 17 -4 12 10 -5 14 -3 15 10 7 20 -10 57 4 48 19 -3 5 -1 12 5 15 6 4
10 3 9 -2 -4 -22 3 -25 17 -7 8 10 13 12 9 4 -4 -10 -2 -9 8 3 15 18 32 24 22
7 -11 -17 7 -11 21 8 11 13 15 14 22 4 12 -18 42 -4 34 16 -5 15 -4 15 12 0 9
-10 22 -18 27 -18z m547 -125 c-3 -3 -9 2 -12 12 -6 14 -5 15 5 6 7 -7 10 -15
7 -18z m-1007 -108 c-10 -9 -11 -8 -5 6 3 10 9 15 12 12 3 -3 0 -11 -7 -18z
m-28 -42 c-3 -9 -8 -14 -10 -11 -3 3 -2 9 2 15 9 16 15 13 8 -4z m1175 -130
c-3 -3 -9 2 -12 12 -6 14 -5 15 5 6 7 -7 10 -15 7 -18z m-220 -40 c-3 -3 -9 2
-12 12 -6 14 -5 15 5 6 7 -7 10 -15 7 -18z m53 -102 c13 -16 12 -17 -3 -4 -17
13 -22 21 -14 21 2 0 10 -8 17 -17z m1074 -1651 c-3 -3 -11 0 -18 7 -9 10 -8
11 6 5 10 -3 15 -9 12 -12z m129 -248 c3 -8 2 -12 -4 -9 -6 3 -10 10 -10 16 0
14 7 11 14 -7z m-134 -219 c0 -5 -5 -3 -10 5 -9 13 -10 13 -10 0 0 -8 9 -21
21 -28 12 -7 18 -16 15 -19 -3 -4 2 -16 11 -27 17 -20 17 -20 -1 -6 -18 14
-19 14 -7 -8 7 -12 16 -20 21 -17 5 3 12 0 16 -6 4 -8 3 -9 -4 -5 -7 4 -12 1
-12 -9 0 -9 5 -13 10 -10 6 3 10 -1 10 -9 0 -8 8 -20 18 -26 16 -11 16 -11 -1
-6 -17 6 -17 5 0 -24 9 -17 24 -30 33 -30 12 0 13 -2 1 -9 -7 -5 -10 -14 -6
-21 6 -9 10 -9 17 1 7 10 8 8 3 -8 -4 -15 1 -28 17 -44 13 -12 17 -19 10 -15
-19 11 7 -44 33 -69 12 -11 14 -16 7 -10 -20 13 25 -75 47 -93 9 -8 10 -10 3
-7 -18 9 15 -55 37 -73 9 -8 10 -11 3 -7 -8 4 -7 -5 5 -29 9 -20 20 -36 25
-36 4 0 12 -10 18 -22 11 -22 10 -22 -4 -4 -16 20 -21 11 -10 -18 3 -9 10 -14
14 -11 4 3 7 -3 6 -13 0 -9 5 -16 12 -14 8 1 11 -2 7 -8 -3 -6 -10 -8 -15 -5
-4 3 -5 -10 -1 -28 4 -17 7 -42 6 -54 -1 -16 2 -20 10 -13 7 6 11 3 11 -11 0
-10 -4 -19 -9 -19 -5 0 -4 -6 2 -14 9 -11 9 -15 -1 -19 -7 -3 -4 -6 7 -6 15
-1 16 -4 7 -10 -7 -4 -15 -24 -17 -44 -2 -23 1 -35 7 -31 5 4 4 -4 -3 -17 -19
-34 -22 -62 -7 -54 7 4 6 1 -3 -7 -24 -21 -39 -71 -26 -94 10 -18 9 -18 -8 -4
-11 9 -16 10 -11 3 4 -7 3 -13 -2 -13 -5 0 -12 -10 -15 -22 -6 -22 -6 -22 8
-4 8 11 15 15 15 8 0 -6 -9 -17 -20 -25 -11 -8 -17 -17 -13 -20 3 -4 -2 -7
-11 -7 -13 0 -17 -6 -13 -20 3 -11 0 -23 -5 -27 -7 -3 -8 -1 -4 5 4 7 2 12 -5
12 -6 0 -9 -8 -6 -20 3 -11 0 -23 -5 -27 -7 -4 -8 -1 -3 7 5 8 3 11 -6 8 -8
-3 -13 -11 -12 -17 2 -6 -2 -11 -8 -11 -5 0 -7 -4 -4 -10 3 -6 -1 -7 -9 -4
-19 7 -22 -12 -3 -20 6 -3 2 -3 -10 -1 -12 3 -25 0 -29 -6 -4 -7 -3 -9 4 -6 6
5 8 -1 5 -14 -3 -11 -9 -17 -12 -12 -11 15 -34 14 -28 -2 4 -9 1 -15 -9 -15
-22 0 -47 -28 -38 -42 5 -8 0 -7 -11 2 -17 14 -18 13 -13 -2 5 -11 2 -15 -10
-13 -9 1 -25 -7 -35 -19 -10 -11 -16 -15 -12 -8 3 6 1 12 -4 12 -12 0 -16
1485 -5 1515 5 13 8 14 15 3 5 -7 9 -17 9 -23z m260 -35 c0 -5 -2 -10 -4 -10
-3 0 -8 5 -11 10 -3 6 -1 10 4 10 6 0 11 -4 11 -10z m160 -310 c6 -11 8 -20 6
-20 -3 0 -10 9 -16 20 -6 11 -8 20 -6 20 3 0 10 -9 16 -20z m-242 -21 c-3 -8
-7 -3 -11 10 -4 17 -3 21 5 13 5 -5 8 -16 6 -23z m56 -95 c3 -8 2 -12 -4 -9
-6 3 -10 10 -10 16 0 14 7 11 14 -7z m107 -651 c-12 -20 -14 -14 -5 12 4 9 9
14 11 11 3 -2 0 -13 -6 -23z m-261 -617 c0 -2 -7 -7 -16 -10 -8 -3 -12 -2 -9
4 6 10 25 14 25 6z"/>
<path d="M2993 4755 c0 -8 4 -12 9 -9 5 3 6 10 3 15 -9 13 -12 11 -12 -6z"/>
<path d="M1860 4799 c0 -5 5 -7 10 -4 6 3 10 8 10 11 0 2 -4 4 -10 4 -5 0 -10
-5 -10 -11z"/>
<path d="M4655 1990 c3 -5 8 -10 11 -10 2 0 4 5 4 10 0 6 -5 10 -11 10 -5 0
-7 -4 -4 -10z"/>
</g>
</svg>
